<svg width="28" height="28" viewBox="0 0 28 28" fill="none" xmlns="http://www.w3.org/2000/svg">
<path d="M16.3334 2.3335H7.00002C6.38118 2.3335 5.78769 2.57933 5.3501 3.01691C4.91252 3.4545 4.66669 4.04799 4.66669 4.66683V23.3335C4.66669 23.9523 4.91252 24.5458 5.3501 24.9834C5.78769 25.421 6.38118 25.6668 7.00002 25.6668H21C21.6189 25.6668 22.2124 25.421 22.6499 24.9834C23.0875 24.5458 23.3334 23.9523 23.3334 23.3335V9.3335M16.3334 2.3335L23.3334 9.3335M16.3334 2.3335V9.3335H23.3334M18.6667 15.1668H9.33335M18.6667 19.8335H9.33335M11.6667 10.5002H9.33335" stroke="#1E1E1E" stroke-width="2" stroke-linecap="round" stroke-linejoin="round"/>
</svg>
